<svg display="none" xmlns="http://www.w3.org/2000/svg">
<symbol id="civil" viewBox="0 0 60 60">
<path d="M40.0707 57.138H11.7668C11.5548 57.138 11.3428 56.926 11.3428 56.714V6.14863C11.3428 5.93662 11.5548 5.72461 11.7668 5.72461H40.0707C40.2827 5.72461 40.4947 5.93662 40.4947 6.14863V56.714C40.3887 56.926 40.2827 57.138 40.0707 57.138ZM12.1908 56.29H39.6466V6.57267H12.1908V56.29Z" fill="#0568C3"/>
<path d="M11.7668 57.1385H0.424022C0.212008 57.1385 0 56.9265 0 56.7145V18.976C0 18.87 0.10602 18.658 0.212027 18.658C0.318034 18.552 0.530042 18.658 0.636049 18.764L11.9788 29.3647C12.0848 29.4707 12.0848 29.5767 12.0848 29.6827V56.7145C12.1908 56.9265 11.9788 57.1385 11.7668 57.1385ZM0.848076 56.2905H11.3428V29.7887L0.848076 19.93V56.2905Z" fill="#0568C3"/>
<path d="M56.0778 57.1385H47.3852C47.1732 57.1385 46.9612 56.9265 46.9612 56.7145V17.5979C46.9612 17.4919 47.0672 17.2798 47.1732 17.2798C47.2792 17.1738 47.4912 17.2798 47.5972 17.3859L56.2898 25.1244C56.5018 25.1244 56.5018 25.2304 56.5018 25.3364V56.7145C56.5018 56.9265 56.2898 57.1385 56.0778 57.1385ZM47.8092 56.2905H55.7598V25.5484L47.8092 18.5519V56.2905Z" fill="#0568C3"/>
<path d="M47.3852 57.1378H39.9647C39.7527 57.1378 39.5407 56.9258 39.5407 56.7138V6.57244H33.1803C32.9683 6.57244 32.7562 6.36041 32.7562 6.1484V3.92226H24.3817C24.1696 3.92226 23.9576 3.71024 23.9576 3.49822V0.424022C23.9576 0.212008 24.1696 0 24.3817 0H47.3852C47.5972 0 47.8092 0.212008 47.8092 0.424022V56.7138C47.8092 56.9258 47.5972 57.1378 47.3852 57.1378ZM40.3887 56.2898H47.0672V0.742046H24.9117V2.96819H33.2863C33.4983 2.96819 33.7103 3.18021 33.7103 3.39222V5.61836H40.0707C40.2827 5.61836 40.4948 5.83039 40.4948 6.0424L40.3887 56.2898Z" fill="#0568C3"/>
<path d="M15.583 57.1381C15.3709 57.1381 15.1589 56.9261 15.1589 56.714V13.9932C15.1589 13.7812 15.3709 13.5691 15.583 13.5691C15.795 13.5691 16.007 13.7812 16.007 13.9932V56.714C16.007 56.9261 15.795 57.1381 15.583 57.1381Z" fill="#0568C3"/>
<path d="M19.7174 57.1381C19.5053 57.1381 19.2933 56.9261 19.2933 56.714V13.9932C19.2933 13.7812 19.5053 13.5691 19.7174 13.5691C19.9294 13.5691 20.1414 13.7812 20.1414 13.9932V56.714C20.1414 56.9261 19.9294 57.1381 19.7174 57.1381Z" fill="#0568C3"/>
<path d="M23.9575 57.1381C23.7455 57.1381 23.5334 56.9261 23.5334 56.714V13.9932C23.5334 13.7812 23.7455 13.5691 23.9575 13.5691C24.1695 13.5691 24.3815 13.7812 24.3815 13.9932V56.714C24.3815 56.9261 24.1695 57.1381 23.9575 57.1381Z" fill="#0568C3"/>
<path d="M28.0919 57.1381C27.8799 57.1381 27.6678 56.9261 27.6678 56.714V13.9932C27.6678 13.7812 27.8799 13.5691 28.0919 13.5691C28.3039 13.5691 28.5159 13.7812 28.5159 13.9932V56.714C28.4099 56.9261 28.3039 57.1381 28.0919 57.1381Z" fill="#0568C3"/>
<path d="M32.2263 57.1381C32.0143 57.1381 31.8022 56.9261 31.8022 56.714V13.9932C31.8022 13.7812 32.0143 13.5691 32.2263 13.5691C32.4383 13.5691 32.6503 13.7812 32.6503 13.9932V56.714C32.5443 56.9261 32.4383 57.1381 32.2263 57.1381Z" fill="#0568C3"/>
<path d="M36.4664 57.1381C36.2544 57.1381 36.0424 56.9261 36.0424 56.714V13.9932C36.0424 13.7812 36.2544 13.5691 36.4664 13.5691C36.6784 13.5691 36.8904 13.7812 36.8904 13.9932V56.714C36.7844 56.9261 36.6784 57.1381 36.4664 57.1381Z" fill="#0568C3"/>
<path d="M4.66426 30.7429C4.45224 30.7429 4.24023 30.5309 4.24023 30.3188V27.0326C4.24023 26.8206 4.45224 26.6086 4.66426 26.6086C4.87627 26.6086 5.08831 26.8206 5.08831 27.0326V30.3188C5.08831 30.5309 4.87627 30.7429 4.66426 30.7429Z" fill="#0568C3"/>
<path d="M4.66426 38.4808C4.45224 38.4808 4.24023 38.2687 4.24023 38.0567V34.7705C4.24023 34.5585 4.45224 34.3465 4.66426 34.3465C4.87627 34.3465 5.08831 34.5585 5.08831 34.7705V38.0567C5.08831 38.2687 4.87627 38.4808 4.66426 38.4808Z" fill="#0568C3"/>
<path d="M4.66426 46.2187C4.45224 46.2187 4.24023 46.0066 4.24023 45.7946V42.5084C4.24023 42.2964 4.45224 42.0844 4.66426 42.0844C4.87627 42.0844 5.08831 42.2964 5.08831 42.5084V45.7946C5.08831 46.0066 4.87627 46.2187 4.66426 46.2187Z" fill="#0568C3"/>
<path d="M4.66426 53.8511C4.45224 53.8511 4.24023 53.6391 4.24023 53.427V50.1408C4.24023 49.9288 4.45224 49.7168 4.66426 49.7168C4.87627 49.7168 5.08831 49.9288 5.08831 50.1408V53.427C5.08831 53.7451 4.87627 53.8511 4.66426 53.8511Z" fill="#0568C3"/>
<path d="M8.16255 38.4808C7.95053 38.4808 7.73853 38.2687 7.73853 38.0567V34.7705C7.73853 34.5585 7.95053 34.3465 8.16255 34.3465C8.37456 34.3465 8.58657 34.5585 8.58657 34.7705V38.0567C8.58657 38.2687 8.37456 38.4808 8.16255 38.4808Z" fill="#0568C3"/>
<path d="M8.16255 46.2187C7.95053 46.2187 7.73853 46.0066 7.73853 45.7946V42.5084C7.73853 42.2964 7.95053 42.0844 8.16255 42.0844C8.37456 42.0844 8.58657 42.2964 8.58657 42.5084V45.7946C8.58657 46.0066 8.37456 46.2187 8.16255 46.2187Z" fill="#0568C3"/>
<path d="M8.16255 53.8511C7.95053 53.8511 7.73853 53.6391 7.73853 53.427V50.1408C7.73853 49.9288 7.95053 49.7168 8.16255 49.7168C8.37456 49.7168 8.58657 49.9288 8.58657 50.1408V53.427C8.58657 53.7451 8.37456 53.8511 8.16255 53.8511Z" fill="#0568C3"/>
<path d="M50.2473 29.3648C50.0352 29.3648 49.8232 29.1527 49.8232 28.9407V25.6545C49.8232 25.4425 50.0352 25.2305 50.2473 25.2305C50.4593 25.2305 50.6713 25.4425 50.6713 25.6545V28.9407C50.6713 29.2587 50.4593 29.3648 50.2473 29.3648Z" fill="#0568C3"/>
<path d="M53.3216 29.3648C53.1096 29.3648 52.8976 29.1527 52.8976 28.9407V25.6545C52.8976 25.4425 53.1096 25.2305 53.3216 25.2305C53.5337 25.2305 53.7457 25.4425 53.7457 25.6545V28.9407C53.7457 29.2587 53.5337 29.3648 53.3216 29.3648Z" fill="#0568C3"/>
<path d="M50.2473 36.2542C50.0352 36.2542 49.8232 36.0422 49.8232 35.8302V32.544C49.8232 32.3319 50.0352 32.1199 50.2473 32.1199C50.4593 32.1199 50.6713 32.3319 50.6713 32.544V35.9362C50.6713 36.1482 50.4593 36.2542 50.2473 36.2542Z" fill="#0568C3"/>
<path d="M53.3216 36.2542C53.1096 36.2542 52.8976 36.0422 52.8976 35.8302V32.544C52.8976 32.3319 53.1096 32.1199 53.3216 32.1199C53.5337 32.1199 53.7457 32.3319 53.7457 32.544V35.9362C53.7457 36.1482 53.5337 36.2542 53.3216 36.2542Z" fill="#0568C3"/>
<path d="M50.2473 43.0382C50.0352 43.0382 49.8232 42.8262 49.8232 42.6141V39.3279C49.8232 39.1159 50.0352 38.9039 50.2473 38.9039C50.4593 38.9039 50.6713 39.1159 50.6713 39.3279V42.6141C50.6713 42.9322 50.4593 43.0382 50.2473 43.0382Z" fill="#0568C3"/>
<path d="M53.3216 43.0382C53.1096 43.0382 52.8976 42.8262 52.8976 42.6141V39.3279C52.8976 39.1159 53.1096 38.9039 53.3216 38.9039C53.5337 38.9039 53.7457 39.1159 53.7457 39.3279V42.6141C53.7457 42.9322 53.5337 43.0382 53.3216 43.0382Z" fill="#0568C3"/>
<path d="M50.2473 49.9288C50.0352 49.9288 49.8232 49.7168 49.8232 49.5048V46.2185C49.8232 46.0065 50.0352 45.7945 50.2473 45.7945C50.4593 45.7945 50.6713 46.0065 50.6713 46.2185V49.5048C50.6713 49.8228 50.4593 49.9288 50.2473 49.9288Z" fill="#0568C3"/>
<path d="M53.3216 49.9288C53.1096 49.9288 52.8976 49.7168 52.8976 49.5048V46.2185C52.8976 46.0065 53.1096 45.7945 53.3216 45.7945C53.5337 45.7945 53.7457 46.0065 53.7457 46.2185V49.5048C53.7457 49.8228 53.5337 49.9288 53.3216 49.9288Z" fill="#0568C3"/>
<path d="M50.2474 56.714C50.0354 56.714 49.8234 56.5019 49.8234 56.2899V53.0037C49.8234 52.7917 50.0354 52.5797 50.2474 52.5797C50.4594 52.5797 50.6714 52.7917 50.6714 53.0037V56.2899C50.6714 56.6079 50.4594 56.714 50.2474 56.714Z" fill="#0568C3"/>
<path d="M53.3215 56.714C53.1095 56.714 52.8975 56.5019 52.8975 56.2899V53.0037C52.8975 52.7917 53.1095 52.5797 53.3215 52.5797C53.5335 52.5797 53.7455 52.7917 53.7455 53.0037V56.2899C53.7455 56.6079 53.5335 56.714 53.3215 56.714Z" fill="#0568C3"/>
<path d="M33.1803 6.67869H18.4453C18.2332 6.67869 18.0212 6.46668 18.0212 6.25467V3.60449C18.0212 3.39247 18.2332 3.18047 18.4453 3.18047H33.1803C33.3923 3.18047 33.6043 3.39247 33.6043 3.60449V6.25467C33.6043 6.46668 33.3923 6.67869 33.1803 6.67869ZM18.8693 5.72463H32.7562V3.8165H18.8693V5.72463Z" fill="#0568C3"/>
<path d="M37.4205 59.9996H4.77452C4.5625 59.9996 4.35046 59.7876 4.35046 59.5756C4.35046 59.3636 4.5625 59.1516 4.77452 59.1516H37.4205C37.6325 59.1516 37.8445 59.3636 37.8445 59.5756C37.8445 59.7876 37.6325 59.9996 37.4205 59.9996Z" fill="#0568C3"/>
<path d="M59.1053 59.9996H46.4056C46.1936 59.9996 45.9816 59.7876 45.9816 59.5756C45.9816 59.3636 46.1936 59.1516 46.4056 59.1516H59.1053C59.3173 59.1516 59.5293 59.3636 59.5293 59.5756C59.5293 59.7876 59.3173 59.9996 59.1053 59.9996Z" fill="#0568C3"/>
</symbol>
<symbol id="energi"  viewBox="0 0 61 61">
<path d="M44.045 55.4813L44.065 55.7598H44.3442H56.2514C56.7079 55.7598 57.163 56.1632 57.335 56.7151C57.3127 57.1897 56.8999 57.5898 56.436 57.5898H56.43H56.4228H56.4144H56.4049H56.3942H56.3823H56.3693H56.3551H56.3397H56.3232H56.3056H56.2868H56.2669H56.2458H56.2237H56.2004H56.176H56.1505H56.1239H56.0961H56.0673H56.0374H56.0064H55.9743H55.9412H55.907H55.8717H55.8353H55.7979H55.7594H55.7199H55.6793H55.6377H55.5951H55.5514H55.5067H55.4609H55.4142H55.3664H55.3177H55.2679H55.2171H55.1654H55.1126H55.0589H55.0042H54.9485H54.8918H54.8342H54.7756H54.716H54.6555H54.5941H54.5317H54.4684H54.4041H54.3389H54.2728H54.2057H54.1378H54.0689H53.9991H53.9285H53.8569H53.7844H53.7111H53.6369H53.5618H53.4858H53.4089H53.3312H53.2526H53.1732H53.0929H53.0118H52.9298H52.847H52.7634H52.6789H52.5936H52.5075H52.4206H52.3329H52.2444H52.155H52.0649H51.974H51.8823H51.7898H51.6966H51.6025H51.5078H51.4122H51.3159H51.2188H51.121H51.0225H50.9232H50.8231H50.7224H50.6209H50.5187H50.4158H50.3121H50.2078H50.1028H49.997H49.8906H49.7835H49.6757H49.5672H49.4581H49.3483H49.2378H49.1266H49.0149H48.9024H48.7893H48.6756H48.5612H48.4462H48.3306H48.2143H48.0975H47.98H47.8619H47.7432H47.6239H47.504H47.3835H47.2624H47.1408H47.0186H46.8958H46.7724H46.6485H46.524H46.399H46.2734H46.1473H46.0206H45.8934H45.7657H45.6374H45.5087H45.3794H45.2496H45.1193H44.9885H44.8571H44.7253H44.5931H44.4603H44.327H44.1933H44.0591H43.9245H43.7894H43.6538H43.5178H43.3813H43.2444H43.107H42.9693H42.8311H42.6924H42.5534H42.4139H42.2741H42.1338H41.9931H41.852H41.7106H41.5687H41.4265H41.2839H41.1409H40.9976H40.8539H40.7098H40.5654H40.4207H40.2756H40.1301H39.9843H39.8382H39.6918H39.545H39.398H39.2506H39.1029H38.9549H38.8066H38.658H38.5092H38.36H38.2106H38.0609H37.9109H37.7607H37.6102H37.4594H37.3084H37.1572H37.0057H36.8539H36.702H36.5498H36.3974H36.2447H36.0919H35.9388H35.7856H35.6321H35.4785H35.3246H35.1706H35.0164H34.862H34.7074H34.5527H34.3978H34.2428H34.0876H33.9322H33.7767H33.6211H33.4653H33.3094H33.1534H32.9972H32.841H32.6846H32.5281H32.3716H32.2149H32.0581H31.9012H31.7443H31.5873H31.4302H31.273H31.1158H30.9585H30.8011H30.6437H30.4863H30.3288H30.1713H30.0137H29.8561H29.6985H29.5409H29.3833H29.2256H29.068H28.9103H28.7527H28.595H28.4374H28.2798H28.1222H27.9646H27.8071H27.6496H27.4922H27.3348H27.1774H27.0201H26.8629H26.7057H26.5487H26.3916H26.2347H26.0778H25.9211H25.7644H25.6078H25.4513H25.2949H25.1387H24.9825H24.8265H24.6706H24.5148H24.3592H24.2037H24.0484H23.8932H23.7381H23.5832H23.4285H23.2739H23.1196H22.9653H22.8113H22.6575H22.5038H22.3504H22.1971H22.044H21.8912H21.7386H21.5861H21.434H21.282H21.1303H20.9788H20.8275H20.6765H20.5258H20.3753H20.225H20.075H19.9253H19.7759H19.6268H19.4779H19.3293H19.181H19.033H18.8853H18.738H18.5909H18.4441H18.2977H18.1516H18.0058H17.8604H17.7153H17.5705H17.4261H17.282H17.1383H16.995H16.852H16.7094H16.5672H16.4253H16.2839H16.1428H16.0021H15.8619H15.722H15.5825H15.4435H15.3049H15.1667H15.0289H14.8915H14.7546H14.6182H14.4821H14.3466H14.2115H14.0768H13.9426H13.8089H13.6756H13.5429H13.4106H13.2788H13.1475H13.0167H12.8864H12.7566H12.6273H12.4985H12.3702H12.2425H12.1153H11.9887H11.8625H11.7369H11.6119H11.4874H11.3635H11.2401H11.1174H10.9951H10.8735H10.7524H10.6319H10.512H10.3928H10.2741H10.156H10.0385H9.92161H9.80536H9.68973H9.57473H9.46036H9.34662H9.23353H9.12108H9.00929H8.89815H8.78766H8.67785H8.5687H8.46022H8.35243H8.24532H8.13889H8.03316H7.92812H7.82379H7.72016H7.61724H7.51504H7.41356H7.3128H7.21277H7.11348H7.01492H6.91711H6.82005H6.72374H6.62818H6.53339H6.43937H6.34611H6.25364H6.16194H6.07103H5.98091H5.89158H5.80305H5.71533H5.62841H5.54231H5.45702H5.37256H5.28892H5.20612H5.12415H5.04302H4.96274H4.88331H4.80474H4.72702H4.65017H4.57418H4.49907H4.42484H4.35149H4.27903H4.20746H4.13679H4.06702H3.99815H3.9302H3.86316H3.79704H3.73184H3.66758H3.60424H3.54185H3.4804H3.4199H3.36035H3.30175H3.24412H3.18746H3.13177H3.07705H3.02331H2.97056H2.9188H2.86803H2.81826H2.76949H2.72173H2.67499H2.62926H2.58456H2.54088H2.49823H2.45662H2.41605H2.37652H2.33805H2.30063H2.26427H2.22897H2.19474H2.16159H2.12951H2.09852H2.06861H2.0398H2.01208H1.98546H1.95995H1.93555H1.91226H1.89009H1.86905H1.84914H1.83036H1.81272H1.79622H1.78087H1.76667H1.75363H1.74175H1.73104H1.72149H1.71313H1.70594H1.69994C1.22301 57.5898 0.8 57.1668 0.8 56.6748C0.8 56.1827 1.223 55.7598 1.69994 55.7598H13.6071H13.8882L13.9065 55.4793L17.3217 3.04939L17.3425 2.72989H17.0223H8.80733H8.50733V3.02989V7.79625C8.50733 8.2883 8.08433 8.7112 7.60739 8.7112C7.13044 8.7112 6.7074 8.28828 6.7074 7.79625V1.81495C6.7074 1.32291 7.13045 0.899976 7.60739 0.899976H50.344C50.8209 0.899976 51.2439 1.32289 51.2439 1.81495V7.79625C51.2439 8.2883 50.8209 8.7112 50.344 8.7112C49.867 8.7112 49.444 8.2883 49.444 7.79625V3.02989V2.72989H49.144H40.929H40.6062L40.6298 3.05178C40.7102 4.15033 41.291 13.1483 41.9542 23.4219C42.8237 36.8911 43.8347 52.553 44.045 55.4813ZM37.715 19.9813L38.2925 19.4589H37.5137H20.1607H19.382L19.9594 19.9813L28.636 27.8318L28.8372 28.0139L29.0385 27.8318L37.715 19.9813ZM20.4438 17.1812L19.7119 17.7224H20.6222H37.0522H37.9625L37.2306 17.1812L29.0156 11.1064L28.8372 10.9745L28.6589 11.1064L20.4438 17.1812ZM38.9906 40.3393H39.7764L39.1906 39.8156L28.9448 30.6567L28.744 30.4772L28.544 30.6576L18.3906 39.8165L17.811 40.3393H18.5915H38.9906ZM30.3893 28.976L30.145 29.1979L30.389 29.42L40.4501 38.5789L40.9989 39.0785L40.9515 38.3379L39.8438 21.0481L39.804 20.4264L39.3428 20.8452L30.3893 28.976ZM30.5965 9.61167L30.2734 9.85213L30.5963 10.0929L38.9959 16.3545L39.5145 16.7411L39.4746 16.0955L38.7362 4.13291L38.7021 3.58003L38.2577 3.91072L30.5965 9.61167ZM28.6594 8.59858L28.8372 8.72957L29.0151 8.59858L36.1225 3.36492L36.8579 2.82335H35.9446H21.7298H20.8165L21.552 3.36492L28.6594 8.59858ZM27.0781 10.0929L27.4011 9.85213L27.0779 9.61167L19.4167 3.91072L18.9723 3.58003L18.9382 4.13291L18.1998 16.0955L18.1599 16.7411L18.6785 16.3545L27.0781 10.0929ZM18.3317 20.8452L17.8704 20.4264L17.8306 21.0481L16.7229 38.3379L16.6755 39.0785L17.2243 38.5789L27.2854 29.42L27.5294 29.1979L27.2851 28.976L18.3317 20.8452ZM16.8004 42.862L16.3846 42.6277L16.3538 43.104L15.6153 54.5059L15.5797 55.0565L16.0612 54.7871L26.5838 48.8992L27.05 48.6384L26.5846 48.3761L16.8004 42.862ZM20.1607 42.0757H19.0005L20.0152 42.6381L28.7841 47.4979L28.9303 47.579L29.0761 47.4973L37.7527 42.6375L38.7556 42.0757H37.6061H20.1607ZM41.413 43.104L41.3821 42.6277L40.9663 42.862L31.1821 48.3761L30.7167 48.6384L31.1829 48.8992L41.7055 54.7871L42.1871 55.0565L42.1514 54.5059L41.413 43.104ZM18.997 55.1991L18.0114 55.7598H19.1454H38.5291H39.6631L38.6775 55.1991L28.9856 49.6851L28.8372 49.6007L28.6889 49.6851L18.997 55.1991Z" fill="#0568C3" />
<path d="M9.82286 12.3557H5.02306C4.54613 12.3557 4.12312 11.9328 4.12312 11.4407C4.12312 10.9487 4.54612 10.5258 5.02306 10.5258H9.82286C10.2998 10.5258 10.7228 10.9487 10.7228 11.4407C10.7228 11.9328 10.2998 12.3557 9.82286 12.3557Z" fill="#0568C3" />
<path d="M9.82286 15.9076H5.02306C4.54612 15.9076 4.12312 15.4847 4.12312 14.9927C4.12312 14.5006 4.54613 14.0777 5.02306 14.0777H9.82286C10.2998 14.0777 10.7228 14.5006 10.7228 14.9927C10.7228 15.4847 10.2998 15.9076 9.82286 15.9076Z" fill="#0568C3" />
<path d="M9.82286 19.4584H5.02306C4.54612 19.4584 4.12312 19.0355 4.12312 18.5434C4.12312 18.0514 4.54612 17.6285 5.02306 17.6285H9.82286C10.2998 17.6285 10.7228 18.0514 10.7228 18.5434C10.7228 19.0355 10.2998 19.4584 9.82286 19.4584Z" fill="#0568C3" />
<path d="M47.8518 12.3557C47.3749 12.3557 46.9519 11.9328 46.9519 11.4407C46.9519 10.9487 47.3749 10.5258 47.8518 10.5258H52.6516C53.1285 10.5258 53.5515 10.9487 53.5515 11.4407C53.5515 11.9328 53.1285 12.3557 52.6516 12.3557H47.8518Z" fill="#0568C3" />
<path d="M47.8518 14.0777H52.6516C53.1285 14.0777 53.5515 14.5006 53.5515 14.9927C53.5515 15.4847 53.1285 15.9076 52.6516 15.9076H47.8518C47.3749 15.9076 46.9519 15.4847 46.9519 14.9927C46.9519 14.5006 47.3749 14.0777 47.8518 14.0777Z" fill="#0568C3" />
<path d="M52.6516 17.6285C53.1285 17.6285 53.5515 18.0514 53.5515 18.5434C53.5515 19.0355 53.1285 19.4584 52.6516 19.4584H47.8518C47.3749 19.4584 46.9519 19.0355 46.9519 18.5434C46.9519 18.0514 47.3749 17.6285 47.8518 17.6285H52.6516Z" fill="#0568C3" />
<path d="M48.9593 36.095C47.1901 36.095 45.7518 34.644 45.7518 32.8436C45.7518 31.0482 47.2773 29.5922 48.9593 29.5922C50.7285 29.5922 52.1668 31.0431 52.1668 32.8436C52.1668 34.644 50.7285 36.095 48.9593 36.095ZM49.0516 34.3585C49.8669 34.3585 50.5515 33.6599 50.5515 32.8436C50.5515 32.0428 49.9742 31.3286 49.0516 31.3286C48.2363 31.3286 47.5517 32.0272 47.5517 32.8436C47.5517 33.6599 48.2363 34.3585 49.0516 34.3585Z" fill="#0568C3" />
<path d="M9.43044 32.9514C9.43044 34.7518 7.9921 36.2028 6.22292 36.2028C4.45373 36.2028 3.01533 34.7518 3.01533 32.9514C3.01533 31.1509 4.45372 29.7 6.22292 29.7C7.9921 29.7 9.43044 31.1509 9.43044 32.9514ZM7.72285 32.9514C7.72285 32.135 7.03823 31.4364 6.22292 31.4364C5.42302 31.4364 4.72292 32.0263 4.72292 32.9514C4.72292 33.7677 5.40761 34.4663 6.22292 34.4663C7.03824 34.4663 7.72285 33.7677 7.72285 32.9514Z" fill="#0568C3" />
<path d="M7.05359 59.4H27.8219" stroke="#0568C3" stroke-width="1.5" stroke-linecap="round"/>
<path d="M42.5906 59.4L60.1283 59.4" stroke="#0568C3" stroke-width="1.5" stroke-linecap="round"/>
</symbol>
<symbol id="industrial"  viewBox="0 0 61 62">
<path d="M52.967 58.8451H8.66433C8.45387 58.8451 8.24341 58.6347 8.24341 58.4242V31.8006C8.24341 31.5901 8.45387 31.3796 8.66433 31.3796H53.0722C53.2827 31.3796 53.4931 31.5901 53.4931 31.8006V58.4242C53.4931 58.6347 53.2827 58.8451 52.967 58.8451ZM9.08525 57.8981H52.546V32.3267H9.08525V57.8981Z" fill="#0568C3"/>
<path d="M19.398 58.8451H8.66433C8.45387 58.8451 8.24341 58.6347 8.24341 58.4242V18.2256C8.24341 18.0152 8.45387 17.8047 8.66433 17.8047H19.398C19.6085 17.8047 19.8189 18.0152 19.8189 18.2256V58.4242C19.8189 58.6347 19.6085 58.8451 19.398 58.8451ZM9.08525 57.898H18.8718V18.7518H9.08525V57.898Z" fill="#0568C3"/>
<path d="M19.398 18.7514H8.66433C8.45387 18.7514 8.24341 18.5409 8.24341 18.3304V15.4892C8.24341 15.2787 8.45387 15.0682 8.66433 15.0682H19.398C19.6085 15.0682 19.8189 15.2787 19.8189 15.4892V18.3304C19.8189 18.5409 19.6085 18.7514 19.398 18.7514ZM9.08525 17.8043H18.8718V15.9101H9.08525V17.8043Z" fill="#0568C3"/>
<path d="M16.8724 15.9099H11.1898C10.9794 15.9099 10.7689 15.6995 10.7689 15.489V12.753C10.7689 12.5425 10.9794 12.332 11.1898 12.332H16.8724C17.0829 12.332 17.2933 12.5425 17.2933 12.753V15.489C17.2933 15.6995 17.0829 15.9099 16.8724 15.9099ZM11.716 14.9628H16.4514V13.1739H11.716V14.9628Z" fill="#0568C3"/>
<path d="M52.967 58.845H8.66433C8.45387 58.845 8.24341 58.6345 8.24341 58.4241V53.5834C8.24341 53.3729 8.45387 53.1625 8.66433 53.1625H30.8683H53.0722C53.2827 53.1625 53.4931 53.3729 53.4931 53.5834V58.4241C53.4931 58.6345 53.2827 58.845 52.967 58.845ZM9.08525 57.8979H52.546V54.0043H30.8156H9.08525V57.8979Z" fill="#0568C3"/>
<path d="M25.3964 51.8991H21.5028C21.2924 51.8991 21.0819 51.6887 21.0819 51.4782V37.1667C21.0819 36.9562 21.2924 36.7457 21.5028 36.7457H25.3964C25.6069 36.7457 25.8173 36.9562 25.8173 37.1667V51.4782C25.9226 51.6887 25.7121 51.8991 25.3964 51.8991ZM21.9238 50.952H24.8702V37.5876H21.9238V50.952Z" fill="#0568C3"/>
<path d="M31.9205 51.8991H28.0269C27.8164 51.8991 27.606 51.6887 27.606 51.4782V37.1667C27.606 36.9562 27.8164 36.7457 28.0269 36.7457H31.9205C32.1309 36.7457 32.3414 36.9562 32.3414 37.1667V51.4782C32.3414 51.6887 32.1309 51.8991 31.9205 51.8991ZM28.3426 50.952H31.2891V37.5876H28.3426V50.952Z" fill="#0568C3"/>
<path d="M38.2347 51.8991H34.2359C34.0254 51.8991 33.8149 51.6887 33.8149 51.4782V37.1667C33.8149 36.9562 34.0254 36.7457 34.2359 36.7457H38.2347C38.4452 36.7457 38.6556 36.9562 38.6556 37.1667V51.4782C38.7608 51.6887 38.5504 51.8991 38.2347 51.8991ZM34.7621 50.952H37.8138V37.5876H34.7621V50.952Z" fill="#0568C3"/>
<path d="M44.7591 51.8991H40.7603C40.5498 51.8991 40.3394 51.6887 40.3394 51.4782V37.1667C40.3394 36.9562 40.5498 36.7457 40.7603 36.7457H44.7591C44.9696 36.7457 45.18 36.9562 45.18 37.1667V51.4782C45.18 51.6887 44.9696 51.8991 44.7591 51.8991ZM41.2864 50.952H44.3382V37.5876H41.2864V50.952Z" fill="#0568C3"/>
<path d="M51.1781 51.8991H47.1793C46.9689 51.8991 46.7584 51.6887 46.7584 51.4782V37.1667C46.7584 36.9562 46.9689 36.7457 47.1793 36.7457H51.0729C51.2834 36.7457 51.4939 36.9562 51.4939 37.1667V51.4782C51.7043 51.6887 51.4938 51.8991 51.1781 51.8991ZM47.6003 50.952H50.652V37.5876H47.6003V50.952Z" fill="#0568C3"/>
<path d="M14.4523 11.8061C13.1895 11.8061 12.1372 10.7537 12.1372 9.49095C12.1372 8.22817 13.1895 7.17585 14.4523 7.17585C14.5575 7.17585 14.6628 7.17585 14.6628 7.17585C14.6628 7.17585 14.6628 7.17585 14.6628 7.07062C14.6628 5.7026 15.9255 3.91366 17.504 3.91366C17.6092 3.91366 17.7145 3.91366 17.7145 3.91366C17.7145 3.91366 17.7145 3.91367 17.7145 3.80844C17.7145 2.22996 18.9773 0.967163 20.5558 0.967163C21.8185 0.967163 22.9761 1.80903 23.2918 2.96658C23.5022 2.96658 23.7127 2.96658 23.9232 2.96658C24.2389 2.01949 25.0807 1.3881 26.133 1.3881C27.3958 1.3881 28.4482 2.44042 28.4482 3.7032C28.4482 4.96598 27.3958 6.0183 26.133 6.0183C26.0278 6.0183 25.9226 6.0183 25.8174 6.0183C25.7121 6.33399 25.6069 6.54445 25.3964 6.75492V6.86016C25.3964 8.12294 24.3441 9.17525 23.0813 9.17525C22.9761 9.17525 22.8708 9.17525 22.7656 9.17525C22.4499 10.1223 21.6081 10.7537 20.5558 10.7537C19.8191 10.7537 19.0825 10.3328 18.6616 9.70141C18.0302 10.0171 17.2936 10.0171 16.6622 9.80665C16.4517 11.0694 15.5046 11.8061 14.4523 11.8061ZM14.4523 8.22817C13.7157 8.22817 13.0843 8.85957 13.0843 9.59619C13.0843 10.3328 13.7157 10.9642 14.4523 10.9642C15.1889 10.9642 15.8203 10.3328 15.8203 9.59619C15.8203 9.49096 15.8203 9.49095 15.8203 9.38571C15.8203 9.17525 15.8203 8.96479 16.0308 8.85956C16.2412 8.75432 16.4517 8.75432 16.5569 8.85956C16.8726 9.07002 17.2936 9.17525 17.6092 9.17525C18.0302 9.17525 18.3459 9.07002 18.6616 8.85956C18.7668 8.75432 18.9773 8.75433 19.0825 8.75433C19.1877 8.75433 19.293 8.85957 19.3982 9.07003C19.6087 9.59619 20.1348 9.91187 20.661 9.91187C21.3976 9.91187 21.9238 9.38572 22.029 8.64909C22.029 8.54386 22.1342 8.33341 22.2394 8.22817C22.3447 8.12294 22.5552 8.12294 22.6604 8.22817C22.7656 8.33341 22.9761 8.3334 23.1866 8.3334C23.9232 8.3334 24.5546 7.70202 24.5546 6.96539C24.5546 6.86016 24.5546 6.86015 24.5546 6.75492C24.5546 6.54445 24.5546 6.43923 24.6598 6.334C24.8703 6.12353 25.0807 5.80784 25.0807 5.38692C25.0807 5.28168 25.186 5.07121 25.2912 4.96598C25.3964 4.86075 25.6069 4.86075 25.7121 4.96598C25.8173 5.07121 26.0278 5.07122 26.2383 5.07122C26.9749 5.07122 27.6063 4.43982 27.6063 3.7032C27.6063 2.96658 26.9749 2.33518 26.2383 2.33518C25.5017 2.33518 24.9755 2.86134 24.8702 3.59796C24.8702 3.70319 24.765 3.91367 24.6598 4.0189C24.5546 4.12413 24.3441 4.12413 24.2389 4.0189C24.0284 3.91367 23.8179 3.91366 23.7127 3.91366C23.6075 3.91366 23.397 3.91367 23.1866 4.0189C23.0813 4.0189 22.8708 4.0189 22.7656 4.0189C22.6604 3.91367 22.5552 3.80843 22.5552 3.7032C22.4499 2.75611 21.6081 2.01948 20.661 2.01948C19.6086 2.01948 18.7668 2.86134 18.7668 3.91366C18.7668 4.12412 18.7668 4.33459 18.872 4.54506C18.9773 4.75552 18.872 4.96598 18.7668 5.07122C18.6616 5.17645 18.4511 5.17644 18.2406 5.17644C18.0302 5.07121 17.8197 5.07122 17.6092 5.07122C16.6622 5.07122 15.7151 6.33399 15.7151 7.28108C15.7151 7.49154 15.7151 7.702 15.8203 7.80724C15.9256 8.0177 15.8203 8.22816 15.7151 8.3334C15.6099 8.43863 15.3994 8.43863 15.1889 8.43863C14.8732 8.3334 14.6628 8.22817 14.4523 8.22817Z" fill="#0568C3"/>
<path d="M44.8645 32.3263H24.0286C23.8181 32.3263 23.6077 32.1158 23.6077 31.9053V25.4862C23.6077 25.2757 23.7129 25.0653 23.9233 25.0653L31.8157 22.7502V20.2246C31.8157 20.0141 31.921 19.8037 32.1315 19.8037L44.654 15.0682C44.7593 15.0682 44.9697 15.0682 45.075 15.1735C45.1802 15.2787 45.2854 15.3839 45.2854 15.5944V31.9053C45.2854 32.1158 45.075 32.3263 44.8645 32.3263ZM24.5547 31.3792H44.3383V16.2258L32.6576 20.3298V22.8554C32.6576 23.0659 32.5524 23.2763 32.3419 23.2763L24.4495 25.5914V31.3792H24.5547Z" fill="#0568C3"/>
<path d="M7.47656 60.9671H19.7477" stroke="#0568C3" stroke-width="1.5" stroke-linecap="round"/>
<path d="M26.6501 60.9671L48.8915 60.9671" stroke="#0568C3" stroke-width="1.5" stroke-linecap="round"/>
</symbol>
</svg>
